<svg width="14" height="14" viewBox="0 0 14 14" fill="none" xmlns="http://www.w3.org/2000/svg">
<path fill-rule="evenodd" clip-rule="evenodd" d="M13.4016 6.99269C13.4016 7.42551 13.3575 7.85773 13.271 8.27904C13.1866 8.69035 13.0616 9.09415 12.8978 9.48017C12.7378 9.85936 12.5394 10.2248 12.3075 10.5655C12.079 10.9041 11.8159 11.2218 11.5268 11.5114C11.2371 11.7997 10.9183 12.0622 10.5799 12.2916C10.238 12.5219 9.87206 12.72 9.49265 12.8808C9.10607 13.0437 8.70133 13.1685 8.29039 13.2527C7.86851 13.3395 7.43472 13.3838 7.00127 13.3838C6.5675 13.3838 6.13373 13.3395 5.71246 13.2527C5.30089 13.1685 4.89618 13.0437 4.5099 12.8808C4.13052 12.72 3.76423 12.5219 3.42235 12.2916C3.08389 12.0622 2.76513 11.7997 2.47605 11.5114C2.18667 11.2218 1.92351 10.9041 1.69476 10.5655C1.46412 10.2248 1.26534 9.85933 1.10472 9.48017C0.940943 9.09415 0.815642 8.69032 0.730947 8.27904C0.645325 7.85773 0.601562 7.42551 0.601562 6.99269C0.601562 6.55955 0.6453 6.1264 0.730972 5.70601C0.815667 5.29471 0.940968 4.89028 1.10475 4.50489C1.26537 4.12542 1.46414 3.75969 1.69478 3.4189C1.92354 3.08001 2.18669 2.76293 2.47607 2.47302C2.76515 2.18465 3.08392 1.92286 3.42237 1.6938C3.76426 1.46255 4.13054 1.26441 4.50993 1.10337C4.8962 0.940128 5.30089 0.815008 5.71249 0.731386C6.13376 0.645262 6.56753 0.601562 7.0013 0.601562C7.43474 0.601562 7.86852 0.645262 8.29041 0.731386C8.70136 0.815033 9.10607 0.940153 9.49267 1.10337C9.87206 1.26439 10.238 1.46255 10.5799 1.6938C10.9184 1.92286 11.2371 2.18465 11.5268 2.47302C11.8159 2.76293 12.0791 3.08001 12.3075 3.4189C12.5394 3.75969 12.7378 4.12545 12.8978 4.50489C13.0616 4.89028 13.1866 5.29471 13.271 5.70601C13.3575 6.1264 13.4016 6.55955 13.4016 6.99269ZM4.66925 2.0561C3.14509 2.7748 2.00754 4.17722 1.65283 5.86737C1.79691 5.86862 4.07453 5.89734 6.69872 5.2011C5.75275 3.5228 4.74207 2.15318 4.66925 2.0561ZM7.15155 6.04152C4.33736 6.88282 1.63689 6.82229 1.54002 6.81856C1.53844 6.87722 1.53564 6.934 1.53564 6.99268C1.53564 8.39477 2.06535 9.673 2.93602 10.6395C2.93414 10.6367 4.42987 7.98692 7.37938 7.03451C7.45063 7.01079 7.52315 6.98956 7.59502 6.96897C7.45784 6.6588 7.30812 6.34797 7.15155 6.04152ZM10.6108 2.8965C9.64857 2.04922 8.38508 1.53528 7.00126 1.53528C6.55717 1.53528 6.1262 1.58896 5.71337 1.6882C5.79524 1.79806 6.82187 3.15802 7.7566 4.87187C9.81891 4.09983 10.5974 2.91646 10.6108 2.8965ZM7.96758 7.87333C7.95541 7.87736 7.94323 7.88084 7.93133 7.88519C4.70653 9.00778 3.65343 11.2701 3.64204 11.2948C4.56992 12.0154 5.73372 12.4501 7.00129 12.4501C7.75819 12.4501 8.47916 12.2962 9.13512 12.0176C9.05418 11.5407 8.73667 9.86931 7.96758 7.87333ZM10.0555 11.5189C11.2827 10.6919 12.1543 9.37876 12.3975 7.8577C12.285 7.82151 10.7558 7.33811 8.99164 7.62054C9.70856 9.58783 9.99984 11.19 10.0555 11.5189ZM8.17729 5.68512C8.30414 5.94539 8.42699 6.21029 8.54042 6.47652C8.58075 6.57202 8.62013 6.66565 8.65855 6.75925C10.5361 6.52332 12.3859 6.92027 12.465 6.93648C12.4525 5.64267 11.989 4.45525 11.2221 3.52563C11.2118 3.54026 10.3352 4.80508 8.17729 5.68512Z" fill="white"/>
</svg>
