<svg width="14" height="14" viewBox="0 0 14 14" fill="none" xmlns="http://www.w3.org/2000/svg">
<path fill-rule="evenodd" clip-rule="evenodd" d="M7.00216 0.601562C5.26401 0.601562 5.04588 0.609163 4.3632 0.64023C3.68186 0.67143 3.21679 0.779298 2.80985 0.937566C2.38891 1.10103 2.03184 1.3197 1.67611 1.67557C1.3201 2.03131 1.10143 2.38838 0.937433 2.80919C0.778764 3.21626 0.670763 3.68146 0.640096 4.36253C0.609563 5.04521 0.601562 5.26348 0.601562 7.00163C0.601562 8.73978 0.609296 8.95725 0.64023 9.63992C0.671563 10.3213 0.779431 10.7863 0.937566 11.1933C1.10117 11.6142 1.31984 11.9713 1.67571 12.327C2.03131 12.683 2.38838 12.9022 2.80905 13.0657C3.21626 13.224 3.68146 13.3318 4.36267 13.363C5.04534 13.3941 5.26335 13.4017 7.00136 13.4017C8.73965 13.4017 8.95712 13.3941 9.63979 13.363C10.3211 13.3318 10.7867 13.224 11.1939 13.0657C11.6147 12.9022 11.9713 12.683 12.3269 12.327C12.6829 11.9713 12.9016 11.6142 13.0656 11.1934C13.2229 10.7863 13.3309 10.3211 13.3629 9.64006C13.3936 8.95738 13.4016 8.73978 13.4016 7.00163C13.4016 5.26348 13.3936 5.04534 13.3629 4.36267C13.3309 3.68133 13.2229 3.21626 13.0656 2.80932C12.9016 2.38838 12.6829 2.03131 12.3269 1.67557C11.9709 1.31957 11.6149 1.1009 11.1935 0.937566C10.7855 0.779298 10.3202 0.67143 9.63886 0.64023C8.95618 0.609163 8.73885 0.601562 7.00016 0.601562H7.00216ZM6.428 1.75489C6.5984 1.75462 6.78853 1.75489 7.00214 1.75489C8.71095 1.75489 8.91349 1.76102 9.58829 1.79169C10.2123 1.82022 10.551 1.92449 10.7766 2.01209C11.0752 2.12809 11.2882 2.26676 11.512 2.49076C11.7361 2.71477 11.8747 2.9281 11.991 3.22677C12.0786 3.45211 12.183 3.79078 12.2114 4.41478C12.2421 5.08946 12.2487 5.29213 12.2487 7.00014C12.2487 8.70816 12.2421 8.91083 12.2114 9.5855C12.1829 10.2095 12.0786 10.5482 11.991 10.7735C11.875 11.0722 11.7361 11.2849 11.512 11.5087C11.288 11.7327 11.0754 11.8714 10.7766 11.9874C10.5512 12.0754 10.2123 12.1794 9.58829 12.2079C8.91362 12.2386 8.71095 12.2453 7.00214 12.2453C5.29318 12.2453 5.09065 12.2386 4.41597 12.2079C3.79197 12.1791 3.4533 12.0749 3.22756 11.9873C2.92889 11.8713 2.71556 11.7326 2.49155 11.5086C2.26755 11.2846 2.12888 11.0718 2.01262 10.773C1.92502 10.5476 1.82061 10.209 1.79221 9.58497C1.76155 8.9103 1.75541 8.70763 1.75541 6.99854C1.75541 5.28946 1.76155 5.08786 1.79221 4.41318C1.82075 3.78918 1.92502 3.45051 2.01262 3.22491C2.12862 2.92624 2.26755 2.7129 2.49155 2.4889C2.71556 2.2649 2.92889 2.12623 3.22756 2.00996C3.45316 1.92196 3.79197 1.81796 4.41597 1.78929C5.00638 1.76262 5.23518 1.75462 6.428 1.75329V1.75489ZM10.4184 2.81757C9.99444 2.81757 9.65043 3.16117 9.65043 3.58531C9.65043 4.00932 9.99444 4.35332 10.4184 4.35332C10.8424 4.35332 11.1864 4.00932 11.1864 3.58531C11.1864 3.16131 10.8424 2.81757 10.4184 2.81757ZM7.00217 3.71491C5.18709 3.71491 3.71547 5.18653 3.71547 7.00161C3.71547 8.8167 5.18709 10.2876 7.00217 10.2876C8.81726 10.2876 10.2883 8.8167 10.2883 7.00161C10.2883 5.18653 8.81726 3.71491 7.00217 3.71491ZM7.00215 4.86826C8.18029 4.86826 9.1355 5.82333 9.1355 7.00161C9.1355 8.17976 8.18029 9.13497 7.00215 9.13497C5.82387 9.13497 4.86879 8.17976 4.86879 7.00161C4.86879 5.82333 5.82387 4.86826 7.00215 4.86826Z" fill="white"/>
</svg>
