<svg width="12" height="10" viewBox="0 0 12 10" fill="none" xmlns="http://www.w3.org/2000/svg">
<path fill-rule="evenodd" clip-rule="evenodd" d="M5.6406 2.75297L5.66578 3.1682L5.2461 3.11735C3.71843 2.92245 2.38383 2.26148 1.25067 1.15138L0.696681 0.600567L0.553988 1.00732C0.251813 1.91404 0.444869 2.87161 1.0744 3.51563C1.41015 3.87154 1.33461 3.92238 0.755438 3.71053C0.553988 3.64274 0.377719 3.5919 0.360931 3.61732C0.302175 3.67664 0.503625 4.44777 0.663106 4.75284C0.881344 5.17654 1.32621 5.59177 1.81305 5.83751L2.22434 6.03242L1.73751 6.04089C1.26746 6.04089 1.25067 6.04936 1.30103 6.22732C1.46891 6.77813 2.13201 7.36284 2.87066 7.61706L3.39108 7.79501L2.93781 8.06618C2.26631 8.45599 1.4773 8.67631 0.688288 8.69326C0.310569 8.70173 0 8.73563 0 8.76105C0 8.84579 1.02404 9.32034 1.61999 9.50676C3.40786 10.0576 5.53148 9.8203 7.1263 8.87969C8.25945 8.21024 9.39261 6.87982 9.92142 5.59177C10.2068 4.90537 10.4922 3.65122 10.4922 3.04956C10.4922 2.65975 10.5174 2.60891 10.9874 2.14284C11.2644 1.87167 11.5246 1.57508 11.575 1.49034C11.6589 1.32933 11.6505 1.32933 11.2224 1.47339C10.509 1.72761 10.4083 1.69372 10.7608 1.31239C11.021 1.04122 11.3316 0.549723 11.3316 0.405665C11.3316 0.380243 11.2057 0.422613 11.063 0.498879C10.9119 0.583619 10.5761 0.71073 10.3243 0.786996L9.87105 0.931054L9.45976 0.651412C9.23313 0.498879 8.91417 0.329399 8.74629 0.278555C8.31821 0.159918 7.6635 0.176866 7.27738 0.312451C6.22816 0.693782 5.56506 1.67677 5.6406 2.75297Z" fill="white"/>
</svg>
