<svg width="14" height="10" viewBox="0 0 14 10" fill="none" xmlns="http://www.w3.org/2000/svg">
<path fill-rule="evenodd" clip-rule="evenodd" d="M12.0024 0.876227C12.5531 1.02736 12.9869 1.47267 13.1341 2.03817C13.4016 3.06308 13.4016 5.20156 13.4016 5.20156C13.4016 5.20156 13.4016 7.33997 13.1341 8.36495C12.9869 8.93046 12.5531 9.37577 12.0024 9.52697C11.0043 9.80156 7.00156 9.80156 7.00156 9.80156C7.00156 9.80156 2.99887 9.80156 2.00069 9.52697C1.44993 9.37577 1.01618 8.93046 0.868981 8.36495C0.601562 7.33997 0.601562 5.20156 0.601562 5.20156C0.601562 5.20156 0.601562 3.06308 0.868981 2.03817C1.01618 1.47267 1.44993 1.02736 2.00069 0.876227C2.99887 0.601562 7.00156 0.601562 7.00156 0.601562C7.00156 0.601562 11.0043 0.601562 12.0024 0.876227ZM5.80157 3.40152V7.40152L9.00157 5.4016L5.80157 3.40152Z" fill="white"/>
</svg>
